<svg width="557" height="411" viewBox="0 0 557 411" fill="none" xmlns="http://www.w3.org/2000/svg">
<path fill-rule="evenodd" clip-rule="evenodd" d="M14.0591 328.562H317.021C315.469 321.899 286.426 262.758 281.012 250.584C279.444 247.057 268.849 222.967 265.447 220.155L165.851 159.772C156.073 153.877 147.112 147.913 137.044 142.585C133.095 150.048 126.785 158.474 122.045 165.582L75.6503 235.173C70.3257 243.16 65.7789 249.984 60.4543 257.972C55.0692 266.049 49.9155 273.287 44.8596 281.372C37.7133 292.799 18.3413 320.469 14.0591 328.562Z" fill="#FBAB14"/>
<path fill-rule="evenodd" clip-rule="evenodd" d="M187.037 138.586L232.226 165.388C236.075 167.817 274.385 191.731 278.026 192.579C282.891 189.321 287.992 185.108 292.88 181.436L322.822 159.385C327.033 156.52 334.58 149.618 339.018 148.584C350.793 156.469 388.587 186.534 402.01 196.578C409.046 201.843 415.938 207.279 423.008 212.576C437.084 223.123 450.926 234.026 465.002 244.572C468.987 247.558 504.427 275.615 507.997 276.568L367.255 64.3546C363.652 59.8158 356.121 61.5952 345.018 61.5956C336.352 61.5956 327.686 61.5956 319.021 61.5956C315.841 56.847 280.08 4.55005 279.026 0.603088C274.498 3.63465 206.82 107.909 198.235 120.787C195.702 124.587 188.004 134.967 187.037 138.586Z" fill="#FBAB14"/>
<path fill-rule="evenodd" clip-rule="evenodd" d="M297.024 214.576L343.339 314.242C345.365 318.292 349.073 324.509 350.017 328.562H525.995C524.319 326.274 517.604 321.514 514.996 319.563C510.989 316.565 507.004 313.562 502.997 310.564L384.875 220.713C377.099 214.493 369.496 209.252 361.704 202.889C357.633 199.564 353.955 197.033 349.732 193.864C346.254 191.253 341.084 186.527 337.019 185.58C328.684 191.161 302.794 211.523 297.024 214.576Z" fill="#FBAB14"/>
<path d="M44.281 381.113C43.276 369.535 34.8091 362.982 23.0495 362.982C10.4773 362.982 0.54541 371.363 0.54541 386.94C0.54541 402.452 10.21 410.908 23.0495 410.908C36.7227 410.908 43.6502 401.425 44.281 393.503L31.431 393.407C30.8002 397.395 27.9776 399.875 23.3273 399.875C17.1481 399.875 13.5776 395.502 13.5776 386.94C13.5776 378.836 17.0412 374.004 23.4127 374.004C28.2879 374.004 31.0674 376.869 31.431 381.113H44.281ZM48.7495 373.822H62.7757V410.266H75.2625V373.822H89.2993V363.612H48.7495V373.822ZM94.0245 410.266H106.693V396.422H113.706C124.343 396.422 131.474 390.157 131.474 380.108C131.474 370.177 124.525 363.612 114.166 363.612H94.0245V410.266ZM106.693 386.576V373.726H111.162C115.598 373.726 118.26 376.099 118.26 380.108C118.26 384.096 115.598 386.576 111.162 386.576H106.693ZM181.324 386.94C181.324 371.363 171.297 362.982 158.628 362.982C145.874 362.982 135.942 371.363 135.942 386.94C135.942 402.43 145.874 410.908 158.628 410.908C171.297 410.908 181.324 402.526 181.324 386.94ZM168.293 386.94C168.293 395.321 164.914 399.875 158.628 399.875C152.342 399.875 148.975 395.321 148.975 386.94C148.975 378.558 152.342 374.004 158.628 374.004C164.914 374.004 168.293 378.558 168.293 386.94ZM187.151 363.612V410.266H197.724L214.583 385.753H214.85V410.266H227.519V363.612H216.764L200.183 388.03H199.819V363.612H187.151ZM211.931 351.04C211.91 353.05 210.638 354.868 207.377 354.868C203.988 354.868 202.716 352.954 202.738 351.04H194.901C194.88 356.963 199.702 360.79 207.377 360.79C215.011 360.79 219.843 356.963 219.864 351.04H211.931ZM387.333 373.822H401.359V410.266H413.846V373.822H427.883V363.612H387.333V373.822ZM475.627 386.94C475.627 371.363 465.599 362.982 452.931 362.982C440.177 362.982 430.245 371.363 430.245 386.94C430.245 402.43 440.177 410.908 452.931 410.908C465.599 410.908 475.627 402.526 475.627 386.94ZM462.595 386.94C462.595 395.321 459.217 399.875 452.931 399.875C446.645 399.875 443.277 395.321 443.277 386.94C443.277 378.558 446.645 374.004 452.931 374.004C459.217 374.004 462.595 378.558 462.595 386.94ZM481.453 410.266H494.122V396.422H501.135C511.772 396.422 518.903 390.157 518.903 380.108C518.903 370.177 511.954 363.612 501.594 363.612H481.453V410.266ZM494.122 386.576V373.726H498.59C503.027 373.726 505.689 376.099 505.689 380.108C505.689 384.096 503.027 386.576 498.59 386.576H494.122ZM556.352 363.612H523.553V410.266H536.222V373.822H556.352V363.612Z" fill="#FEFEFE"/>
<path d="M247.104 363.612H232.896L246.74 386.94L232.436 410.266H246.836L254.758 396.422H255.122L263.054 410.266H277.54L263.054 386.94L276.995 363.612H262.872L255.122 377.19H254.758L247.104 363.612ZM282.458 363.612V410.266H293.031L309.89 385.753H310.157V410.266H322.826V363.612H312.071L295.49 388.03H295.126V363.612H282.458ZM328.834 363.612V410.266H341.224V383.112H341.588L351.979 409.903H359.452L369.843 383.294H370.207V410.266H382.597V363.612H366.828L355.988 390.04H355.443L344.603 363.612H328.834Z" fill="#FBAB14"/>
</svg>
